Simulation
nRows=49
nColumns=15
endheader
time  TH_x TH_y TH_z SC_y  SC_z  SC_x  AC_y  AC_z  AC_x  GH_y  GH_z  GH_yy  EL_x  PS_y
1.55  0.000000  0.000000  0.000000  -33.77270976157326  5.454702524433727  77.94476407677166  48.44096842377686  -33.811530137155216  -40.54498378741104  21.847455918387546  54.17124118885593  -20.57539096040314  17.954045410323445  0.000000
1.581  0.000000  0.000000  0.000000  -34.0730642886747  5.785318608191955  78.41440586858317  48.43972265457541  -33.45273632137328  -40.23936469833153  21.839864547439255  54.633517338307016  -20.670755824839638  17.921433444773072  0.000000
1.612  0.000000  0.000000  0.000000  -34.339862761562074  6.068269719521706  78.79266670759714  48.450094808952855  -33.172267371781864  -39.93043688194329  21.776092487416264  55.07756404180834  -20.695039865175698  17.893900189222155  0.000000
1.643  0.000000  0.000000  0.000000  -34.576061894282866  6.279968120829919  79.08577302233347  48.49176964822702  -32.96022226443601  -39.63330872881138  21.665173223506173  55.48256715101773  -20.68845413896493  17.885924662470135  0.000000
1.674  0.000000  0.000000  0.000000  -34.79470477521615  6.424392805760486  79.29014580539705  48.570195121612116  -32.77589156474525  -39.34662882502782  21.54966946305769  55.804645857095586  -20.683973943425826  17.89951804797749  0.000000
1.705  0.000000  0.000000  0.000000  -35.00819153079694  6.523028085865154  79.41021746033806  48.6740828354829  -32.58805898932094  -39.06817672875708  21.479763470961743  56.001880386194046  -20.69348322828677  17.925824343836606  0.000000
1.736  0.000000  0.000000  0.000000  -35.21733749108044  6.595424368565327  79.46499199348177  48.781239128571585  -32.39685479065151  -38.81323713983745  21.48920661724988  56.052191878911735  -20.716236641444983  17.955983970957575  0.000000
1.767  0.000000  0.000000  0.000000  -35.40495559852383  6.6467624784179415  79.47030015647768  48.868506886167445  -32.225761401687166  -38.614578972745655  21.584424934571985  55.96288780092811  -20.746855825431876  17.985094704230576  0.000000
1.798  0.000000  0.000000  0.000000  -35.54036920307703  6.669909447755667  79.42828619828754  48.91779541891766  -32.10627993702832  -38.5118824898838  21.750448867673768  55.764599533254525  -20.780433259580647  18.01134414406552  0.000000
1.829  0.000000  0.000000  0.000000  -35.59626730659237  6.655879013362277  79.33880061389158  48.916990166817165  -32.07000557071053  -38.536467329746635  21.965352622782387  55.488536448239806  -20.818139248582227  18.033808745380544  0.000000
1.8599999999999999  0.000000  0.000000  0.000000  -35.5626445576543  6.597145371691977  79.20856948092774  48.866664072478756  -32.140926892671914  -38.69660338167959  22.20809632160961  55.14587827619037  -20.877944269511303  18.05301400402234  0.000000
1.891  0.000000  0.000000  0.000000  -35.448972525163285  6.482154219572237  79.05119490050784  48.785276297605186  -32.33138605594367  -38.97443628595062  22.45877745424609  54.72434976893294  -20.99518402963984  18.067732364405725  0.000000
1.922  0.000000  0.000000  0.000000  -35.272020099598166  6.29847387102776  78.86366873608596  48.70286327626439  -32.63047660583234  -39.3297650759275  22.69710245812014  54.20154001235154  -21.20516330241302  18.07657069908245  0.000000
1.953  0.000000  0.000000  0.000000  -35.04996047338254  6.044897807957116  78.6113790104884  48.648094605289856  -33.00155324896708  -39.70510838144982  22.91325394932592  53.56204813463009  -21.517302821717415  18.08164504986507  0.000000
1.984  0.000000  0.000000  0.000000  -34.800935948552834  5.734731966025203  78.27578130750535  48.62359409162529  -33.424506704687396  -40.06843363014767  23.10940800271348  52.80624230408143  -21.89940450177196  18.090097641871704  0.000000
2.015  0.000000  0.000000  0.000000  -34.53930076711153  5.385783741287222  77.85680069467391  48.60892458780703  -33.89316417326535  -40.418413743705194  23.293261168308952  51.946725962756  -22.28779281863233  18.11312047821661  0.000000
2.046  0.000000  0.000000  0.000000  -34.27597344530299  5.0128620117408405  77.35671782366778  48.58211017166602  -34.399883716351496  -40.76019470240297  23.47292934801918  51.000645474720805  -22.62134124391545  18.1610480980043  0.000000
2.077  0.000000  0.000000  0.000000  -34.01742229001141  4.624717312753872  76.78479282760846  48.52957177988238  -34.93653828926741  -41.09552270257501  23.652713188783846  49.983606305819855  -22.86959529565976  18.23692121393143  0.000000
2.108  0.000000  0.000000  0.000000  -33.76671030396327  4.223790828005274  76.15134372152548  48.449699605552894  -35.48964130376016  -41.419046111856424  23.833826060749484  48.90871904773217  -23.0367213924425  18.33642390081816  0.000000
2.139  0.000000  0.000000  0.000000  -33.52775503912221  3.809990591125407  75.46341743681225  48.34849406267792  -36.04178834070361  -41.722644607042156  24.015701348662482  47.78775214472708  -23.142939840775846  18.45255162699439  0.000000
2.17  0.000000  0.000000  0.000000  -33.30468784831838  3.3826967916724993  74.72399866146154  48.23185926998265  -36.57678829750257  -42.00083233441013  24.194662353193134  46.632216194067716  -23.206155296824395  18.577518839563325  0.000000
2.201  0.000000  0.000000  0.000000  -33.09887329811399  2.945212097281835  73.93180146676029  48.09869359057595  -37.08239851224556  -42.252645891236966  24.36409130909895  45.45237824659384  -23.23519108784422  18.704845893681128  0.000000
2.232  0.000000  0.000000  0.000000  -32.90878447126996  2.5035074989547343  73.084097590199  47.94323028508789  -37.54944731229295  -42.47958152629266  24.517138864891102  44.2560276248922  -23.231118394424946  18.829626318195544  0.000000
2.263  0.000000  0.000000  0.000000  -32.73043012362453  2.0618303289928743  72.18124849731856  47.761054315823166  -37.969261836170276  -42.684558922368886  24.649381371667527  43.04851854399641  -23.19146962504593  18.94809113996899  0.000000
2.294  0.000000  0.000000  0.000000  -32.560330383308624  1.623443404126466  71.23005436492457  47.55262668537394  -38.33425228606729  -42.869725751604186  24.76152760921786  41.83272459505614  -23.112063731011652  19.05670842232689  0.000000
2.325  0.000000  0.000000  0.000000  -32.396918789109804  1.1904569257262159  70.24536036395772  47.32269975391533  -38.64048124624397  -43.037833583208474  24.85909267684435  40.609313145448354  -22.98820008950539  19.15206239545672  0.000000
2.356  0.000000  0.000000  0.000000  -32.24024520129611  0.7639478451228674  69.24669300988965  47.07721841455244  -38.8891342792628  -43.19301747996289  24.949538352324314  39.37649675403466  -22.816712846260593  19.231523504072157  0.000000
2.387  0.000000  0.000000  0.000000  -32.092273015665086  0.3486241902362495  68.25271773643762  46.8169661600646  -39.08772554540752  -43.34032368678438  25.039347437949832  38.12928761804998  -22.59734296297625  19.295623555131176  0.000000
2.418  0.000000  0.000000  0.000000  -31.95396238658233  -0.04708517071124312  67.27821094172133  46.53670737101185  -39.247740076634315  -43.48549427208496  25.1312176801462  36.858627668928925  -22.333105789451377  19.348140457381742  0.000000
2.449  0.000000  0.000000  0.000000  -31.823162904899355  -0.4146726587997645  66.3334623684217  46.22782509564105  -39.377978975858824  -43.634850750475906  25.226497099585565  35.55227060356183  -22.02860868608922  19.394082134313898  0.000000
2.48  0.000000  0.000000  0.000000  -31.696726652491193  -0.7485312645102389  65.42654217005645  45.88705963851909  -39.483455309616765  -43.7927350282578  25.32808453011033  34.197685419667906  -21.693924970141058  19.43790237634798  0.000000
2.511  0.000000  0.000000  0.000000  -31.574796741706354  -1.0503919704762748  64.56722210638738  45.5222716509189  -39.566456406325536  -43.96013173100242  25.44184108215087  32.78510411204132  -21.346834941486904  19.48178373705085  0.000000
2.542  0.000000  0.000000  0.000000  -31.461119322032687  -1.3277253627380545  63.76708419823336  45.15121281067255  -39.630232678558016  -44.134350273362564  25.574770795144683  31.30950106154932  -21.012418238354737  19.52591538410712  0.000000
2.573  0.000000  0.000000  0.000000  -31.36088036004738  -1.5871844473593755  63.037585139304404  44.791160891278075  -39.68116975608773  -44.3111984821245  25.7335396329368  29.770343469220588  -20.714044926543824  19.569271715254775  0.000000
2.604  0.000000  0.000000  0.000000  -31.275020006532646  -1.8276750597274227  62.38615596523139  44.448589012711864  -39.72781508760322  -44.486996532960674  25.922708740717386  28.169782885046462  -20.46405373418914  19.61089252137226  0.000000
2.635  0.000000  0.000000  0.000000  -31.198399802198864  -2.0388174977179476  61.815162767246775  44.116320828870926  -39.77845334929586  -44.66072207885683  26.14550531374472  26.51171409219609  -20.25813025512721  19.649894234245792  0.000000
2.666  0.000000  0.000000  0.000000  -31.121599495296806  -2.2066960765992096  61.3227612283358  43.780153826159264  -39.839222458540604  -44.83371691042994  26.402689963130207  24.802185891410065  -20.08174656608222  19.687046445554166  0.000000
2.697  0.000000  0.000000  0.000000  -31.037847930937428  -2.3240408189138693  60.90534979321821  43.42903911085012  -39.9131416836524  -45.01027155100377  26.693462021037938  23.053320522558693  -19.916552066741836  19.723991731913575  0.000000
2.7279999999999998  0.000000  0.000000  0.000000  -30.946801678372882  -2.39550875607258  60.5579628472539  43.0599061121655  -40.00028008615504  -45.197433033628705  27.0139285084642  21.285607851906285  -19.747398109095226  19.76495099493965  0.000000
2.759  0.000000  0.000000  0.000000  -30.85536938094409  -2.434382002559921  60.27541436716558  42.676941159027834  -40.09932838096277  -45.4032011426009  27.35932409315864  19.524895399428296  -19.562336525265984  19.814309518364205  0.000000
2.79  0.000000  0.000000  0.000000  -30.769838240417425  -2.4539730835824085  60.05371671920576  42.28535155123078  -40.20787886192946  -45.6351548810741  27.72352904276444  17.791773820702875  -19.353348979136573  19.878487001616453  0.000000
2.821  0.000000  0.000000  0.000000  -30.691261001182948  -2.4598231931491297  59.89029525595033  41.88738181001303  -40.32164909748585  -45.89696376246675  28.102444732818558  16.09360226206598  -19.112953329588077  19.96364125355858  0.000000
2.852  0.000000  0.000000  0.000000  -30.611437590511226  -2.45085542189936  59.78791178502495  41.48222710173725  -40.433796754491816  -46.19389626557214  28.492666629224203  14.42099142369599  -18.834861893092956  20.08191829120546  0.000000
2.883  0.000000  0.000000  0.000000  -30.519540853544775  -2.4225800820847065  59.758230749032  41.067648027084246  -40.5407411595197  -46.53415300116943  28.894454306370875  12.756766046148682  -18.512230574150156  20.242268277342692  0.000000
2.914  0.000000  0.000000  0.000000  -30.409646988300786  -2.37123833801896  59.81336640027609  40.64169999421712  -40.640607724467905  -46.925455722893794  29.31022221459768  11.089362412726897  -18.142110155236807  20.452747133013936  0.000000
2.945  0.000000  0.000000  0.000000  -30.286167286956985  -2.2991499617089506  59.9552202025379  40.21245823825024  -40.73631420380862  -47.36805066983852  29.74656403394692  9.426428642771256  -17.72579623779992  20.7092680664921  0.000000
2.976  0.000000  0.000000  0.000000  -30.162002985792437  -2.2120739310686743  60.17611200972427  39.79181130436068  -40.82962571316067  -47.85233139824255  30.210573375319886  7.780965643257282  -17.268707619149687  21.009503355453226  0.000000
3.007  0.000000  0.000000  0.000000  -30.070755959135052  -2.1102907381338034  60.44130405213186  39.40394148113522  -40.94005806841447  -48.34063771660806  30.71682848638191  6.186599716567352  -16.771778513853025  21.35973040462032  0.000000
3.038  0.000000  0.000000  0.000000  -30.023016830357722  -2.008990256449651  60.68426386966025  39.0916967319633  -41.11091786586494  -48.78226033147595  31.272559666428666  4.69495650943824  -16.2419333189074  21.798840995853148  0.000000
